<svg width="24" height="25" viewBox="0 0 24 25" fill="none" xmlns="http://www.w3.org/2000/svg">
<path fill-rule="evenodd" clip-rule="evenodd" d="M19.5303 4.96967C19.2374 4.67678 18.7626 4.67678 18.4697 4.96967L4.46967 18.9697C4.17678 19.2626 4.17678 19.7374 4.46967 20.0303C4.76256 20.3232 5.23744 20.3232 5.53033 20.0303L19.5303 6.03033C19.8232 5.73744 19.8232 5.26256 19.5303 4.96967Z" fill="white"/>
<path fill-rule="evenodd" clip-rule="evenodd" d="M19.75 5.5C19.75 5.08579 19.4142 4.75 19 4.75H8.73C8.31579 4.75 7.98 5.08579 7.98 5.5C7.98 5.91421 8.31579 6.25 8.73 6.25H18.25V15.77C18.25 16.1842 18.5858 16.52 19 16.52C19.4142 16.52 19.75 16.1842 19.75 15.77V5.5Z" fill="white"/>
</svg>
