<svg width="149" height="54" viewBox="0 0 149 54" fill="none" xmlns="http://www.w3.org/2000/svg">
<path d="M23.632 32.5H22.066V19.774H23.632V25.642H25.522L29.662 19.774H31.462L26.89 26.092L31.498 32.5H29.644L25.648 27.064H23.632V32.5ZM33.964 31.024C34.336 31.024 34.672 31.006 34.972 30.97C35.272 30.922 35.548 30.838 35.8 30.718C36.052 30.586 36.286 30.406 36.502 30.178C36.73 29.95 36.946 29.644 37.15 29.26L32.02 19.756H33.874L38.05 27.64L41.254 19.756H42.946C42.562 20.62 42.178 21.508 41.794 22.42C41.422 23.32 41.044 24.226 40.66 25.138C40.372 25.822 40.072 26.518 39.76 27.226C39.46 27.922 39.142 28.6 38.806 29.26C38.578 29.716 38.332 30.142 38.068 30.538C37.816 30.934 37.546 31.264 37.258 31.528C36.814 31.924 36.328 32.188 35.8 32.32C35.272 32.44 34.66 32.5 33.964 32.5V31.024ZM54.5037 32.5H52.9377V21.196H46.0617V32.5H44.4957V19.774H54.5037V32.5ZM57.6441 32.5V19.774H59.2101V30.052L66.0321 19.774H67.6881V32.5H66.1221V22.312L59.2821 32.5H57.6441ZM75.1657 32.5H73.5997V21.196H69.5137V19.774H79.2517V21.196H75.1657V32.5ZM81.0578 19.774H82.6238V25.03H85.2338C85.8698 25.03 86.4698 25.078 87.0338 25.174C87.6098 25.258 88.1138 25.432 88.5458 25.696C88.9778 25.948 89.3258 26.308 89.5898 26.776C89.8538 27.232 89.9918 27.832 90.0038 28.576C90.0038 29.332 89.8718 29.962 89.6078 30.466C89.3558 30.958 89.0078 31.36 88.5638 31.672C88.1198 31.972 87.5978 32.188 86.9978 32.32C86.4098 32.44 85.7858 32.5 85.1258 32.5H81.0578V19.774ZM82.6238 31.078H84.9818C85.4258 31.078 85.8518 31.048 86.2598 30.988C86.6678 30.928 87.0278 30.814 87.3398 30.646C87.6638 30.478 87.9218 30.244 88.1138 29.944C88.3058 29.644 88.4018 29.224 88.4018 28.684C88.4018 28.168 88.3058 27.766 88.1138 27.478C87.9218 27.178 87.6698 26.956 87.3578 26.812C87.0458 26.656 86.6858 26.56 86.2778 26.524C85.8818 26.476 85.4738 26.452 85.0538 26.452H82.6238V31.078Z" fill="white"/>
<path fill-rule="evenodd" clip-rule="evenodd" d="M124.03 19.4697C123.737 19.1768 123.263 19.1768 122.97 19.4697L108.97 33.4697C108.677 33.7626 108.677 34.2374 108.97 34.5303C109.263 34.8232 109.737 34.8232 110.03 34.5303L124.03 20.5303C124.323 20.2374 124.323 19.7626 124.03 19.4697Z" fill="white"/>
<path fill-rule="evenodd" clip-rule="evenodd" d="M124.25 20C124.25 19.5858 123.914 19.25 123.5 19.25H113.23C112.816 19.25 112.48 19.5858 112.48 20C112.48 20.4142 112.816 20.75 113.23 20.75H122.75V30.27C122.75 30.6842 123.086 31.02 123.5 31.02C123.914 31.02 124.25 30.6842 124.25 30.27V20Z" fill="white"/>
<rect x="0.5" y="0.5" width="148" height="53" stroke="white"/>
</svg>
