<svg width="200" height="18" viewBox="0 0 200 18" fill="none" xmlns="http://www.w3.org/2000/svg">
<path d="M0 17.3124V0.711035H8.47706C9.19954 0.711035 9.87385 0.789195 10.5 0.945517C11.1261 1.08621 11.672 1.32851 12.1376 1.67241C12.6032 2.01632 12.9644 2.46965 13.2213 3.03241C13.4943 3.59517 13.6307 4.29862 13.6307 5.14276C13.6307 5.73678 13.4862 6.31517 13.1972 6.87793C12.9243 7.42506 12.539 7.85494 12.0413 8.16759C12.7156 8.48023 13.2695 8.95701 13.703 9.59793C14.1365 10.2232 14.3532 11.0361 14.3532 12.0366C14.3532 12.9432 14.1846 13.717 13.8475 14.3579C13.5103 14.9989 13.0929 15.5225 12.5952 15.929C11.8727 16.5074 11.0298 16.8825 10.0665 17.0545C9.11926 17.2264 8.12385 17.3124 7.08027 17.3124H0ZM7.41743 7.15931C8.09174 7.15931 8.57339 7.02644 8.86238 6.76069C9.16743 6.49494 9.31192 6.1823 9.29587 5.82276C9.29587 5.40069 9.15137 5.09586 8.86238 4.90827C8.58945 4.72069 8.17202 4.6269 7.61009 4.6269H4.35894V7.15931H7.41743ZM4.35894 13.3966H7.82683C8.59747 13.3966 9.15137 13.2637 9.48853 12.9979C9.82568 12.7322 9.99426 12.3805 9.99426 11.9428C9.99426 11.0361 9.32798 10.5828 7.99541 10.5828H4.35894V13.3966Z" fill="white"/>
<path d="M29.535 0.711035V4.65034H21.0339V7.18276H28.0419V10.9345H21.0339V13.3966H29.535V17.3124H16.6749V0.711035H29.535Z" fill="white"/>
<path d="M38.9731 0.711035C39.9685 0.711035 40.8756 0.812643 41.6944 1.01586C42.5293 1.20345 43.2437 1.53172 43.8378 2.00069C44.4479 2.45402 44.9135 3.05586 45.2346 3.80621C45.5717 4.55655 45.7403 5.48667 45.7403 6.59655C45.7243 7.7377 45.4915 8.71471 45.0419 9.52759C44.6084 10.3405 44.0144 10.997 43.2598 11.4972C42.6658 11.9037 41.9834 12.2007 41.2128 12.3883C40.4421 12.5602 39.6394 12.6462 38.8045 12.6462H36.1795V17.3124H31.8206V0.711035H38.9731ZM38.8045 8.87103C39.6394 8.87103 40.2816 8.68345 40.7311 8.30828C41.1967 7.91747 41.4376 7.38598 41.4536 6.71379C41.4697 6.01034 41.269 5.49448 40.8515 5.16621C40.4341 4.8223 39.7437 4.65034 38.7804 4.65034H36.1795V8.87103H38.8045Z" fill="white"/>
<path d="M55.9925 0.5C57.2769 0.5 58.4489 0.703218 59.5086 1.10965C60.5843 1.50046 61.4994 2.06322 62.254 2.79793C63.0246 3.51701 63.6187 4.40023 64.0361 5.44759C64.4696 6.47931 64.6863 7.63609 64.6863 8.91793C64.6863 10.1841 64.4776 11.3487 64.0602 12.4117C63.6427 13.4591 63.0487 14.3657 62.2781 15.1317C61.5074 15.8821 60.5843 16.4683 59.5086 16.8903C58.4489 17.2968 57.2689 17.5 55.9684 17.5C54.6359 17.5 53.4317 17.2968 52.356 16.8903C51.2804 16.4839 50.3572 15.9133 49.5866 15.1786C48.832 14.4283 48.246 13.5294 47.8285 12.4821C47.4272 11.4347 47.2265 10.2701 47.2265 8.98828C47.2265 7.70644 47.4352 6.54184 47.8526 5.49448C48.2861 4.44713 48.8882 3.55609 49.6588 2.82138C50.4294 2.08667 51.3526 1.51609 52.4283 1.10965C53.504 0.703218 54.6921 0.5 55.9925 0.5ZM51.6817 8.96483C51.6817 9.52759 51.762 10.0825 51.9226 10.6297C52.0992 11.1611 52.3641 11.6457 52.7173 12.0834C53.0705 12.5055 53.52 12.8494 54.0659 13.1152C54.6278 13.3653 55.3021 13.4903 56.0888 13.4903C56.8274 13.4903 57.4535 13.3575 57.9673 13.0917C58.4971 12.8103 58.9306 12.4586 59.2677 12.0366C59.6049 11.5988 59.8457 11.1221 59.9902 10.6062C60.1508 10.0747 60.231 9.55103 60.231 9.03517C60.231 8.55057 60.1588 8.04253 60.0143 7.51103C59.8698 6.96391 59.629 6.47149 59.2918 6.03379C58.9547 5.59609 58.5132 5.23655 57.9673 4.95517C57.4375 4.65816 56.7872 4.50965 56.0166 4.50965C55.246 4.50965 54.5797 4.64253 54.0177 4.90827C53.4719 5.17402 53.0223 5.51793 52.6691 5.94C52.332 6.36207 52.0831 6.83885 51.9226 7.37034C51.762 7.90184 51.6817 8.43333 51.6817 8.96483Z" fill="white"/>
<path d="M71.3391 7.15931H77.5283V0.711035H81.8873V17.3124H77.5283V11.0517H71.3391V17.3124H66.9802V0.711035H71.3391V7.15931Z" fill="white"/>
<path d="M89.4716 9.99655L96.9854 0.711035H100.405V17.3124H96.0461V8.19103L88.5324 17.3124H85.1127V0.711035H89.4716V9.99655Z" fill="white"/>
<path d="M107.98 11.0048V17.3124H103.621V0.711035H107.98V7.08896H110.34L114.025 0.711035H118.986L113.929 8.66L118.938 17.3124H113.881L110.437 11.0048H107.98Z" fill="white"/>
<path d="M123.54 17.3124H118.868L125.707 0.711035H130.138L136.905 17.3124H132.209L131.366 14.9676H124.407L123.54 17.3124ZM129.994 11.1455L127.923 5.44759L125.779 11.1455H129.994Z" fill="white"/>
<path d="M149.749 11.0048V17.3124H145.39V0.711035H149.749V7.08896H152.109L155.793 0.711035H160.754L155.697 8.66L160.706 17.3124H155.649L152.205 11.0048H149.749Z" fill="white"/>
<path d="M166.729 9.99655L174.242 0.711035H177.662V17.3124H173.303V8.19103L165.789 17.3124H162.37V0.711035H166.729V9.99655Z" fill="white"/>
<path d="M186.393 0.711035L190.56 7.98L194.702 0.711035H200V17.3124H195.641V6.73724L191.33 14.0297H189.62L185.237 6.73724V17.3124H180.878V0.711035H186.393Z" fill="white"/>
</svg>
