<svg width="169" height="169" viewBox="0 0 169 169" fill="none" xmlns="http://www.w3.org/2000/svg">
<path d="M165.797 61.027C161.037 43.9289 149.912 28.5074 135.057 18.829C119.315 8.57462 98.7363 5.49352 80.3264 5.08078C54.6186 4.49208 22.0542 14.3657 9.40666 38.8801C8.35403 40.9182 11.4543 42.6683 12.507 40.6303C21.4687 23.2571 42.8733 13.2235 61.3407 9.9344C81.2063 6.40217 102.928 9.17932 121.725 16.1894C141.35 23.5066 154.977 40.3039 161.673 59.7376C169.128 81.3597 165.001 102.892 153.102 121.884C128.536 161.084 68.2452 173.809 31.5791 144.098C14.7818 130.488 3.82676 112.28 3.61559 90.5006C3.49081 77.6643 5.99281 63.3306 12.4014 52.0684C14.3883 48.581 17.0566 45.5927 20.0673 42.8955C20.1121 42.1948 20.1633 41.5005 20.2113 40.8094C19.8403 40.3651 19.5677 39.8471 19.4114 39.2897C19.3955 39.2225 19.3987 39.1713 19.3827 39.1009C17.5525 40.6399 15.78 42.2556 14.1035 43.9929C6.77348 51.5789 3.88435 62.102 1.84308 72.1516C-2.21387 92.1164 0.195341 110.782 11.6431 127.65C21.4431 142.092 36.5575 155.533 53.6555 160.227C74.1962 165.865 95.6424 165.388 115.079 156.682C123.875 152.747 133.409 148.882 140.8 142.527C149.864 134.727 156.673 123.711 162.169 113.233C170.549 97.2611 170.542 78.0578 165.797 61.027Z" fill="#AA4334"/>
<path d="M56.7461 101.904C57.0757 105.583 57.1333 111.758 60.9854 113.415C61.1384 113.623 61.3181 113.811 61.5198 113.972C65.3527 116.858 70.6959 112.36 73.921 110.424C82.8699 105.068 114.19 84.7096 118.839 77.5427C119.051 77.2539 119.153 76.8986 119.126 76.5412C119.099 76.1838 118.945 75.8479 118.691 75.5942C118.679 75.3152 118.597 75.0437 118.453 74.8046C118.309 74.5654 118.107 74.3661 117.866 74.2248C112.676 71.051 89.4865 60.4767 83.0235 58.0834C79.6832 56.8388 65.1288 50.5967 63.1483 50.5487C55.5559 45.6694 56.6821 68.2258 56.6437 70.2319C56.4358 80.739 55.8119 91.4221 56.7461 101.904ZM67.0613 80.0927C66.7802 80.2185 66.5398 80.4202 66.367 80.675C66.3542 79.7184 66.3382 78.7681 66.3318 77.8243C66.6389 78.0002 66.9621 78.157 67.2852 78.317C67.218 78.8993 67.138 79.4944 67.0613 80.0927ZM67.7236 95.0087C67.9251 94.2152 68.2067 93.4154 68.5458 92.6155C73.6106 91.4285 78.4258 88.9489 83.3722 87.3523C85.7847 86.69 88.2003 86.0278 90.5999 85.3271C83.1259 88.8305 75.4919 91.9532 67.7236 95.0087ZM78.6658 82.4251C78.0899 82.6875 77.5076 82.9434 76.9413 83.225C76.4469 82.9256 75.9303 82.6646 75.3959 82.4443C76.4837 82.4123 77.5748 82.3995 78.6658 82.4251ZM77.1332 77.6995C77.2068 77.6547 77.2868 77.6195 77.37 77.5811C79.4129 78.0416 81.4963 78.2988 83.5898 78.349C85.0584 78.525 86.5269 78.7105 87.9987 78.8801C87.8579 78.9313 87.7171 78.9729 87.5732 79.0241C84.4697 78.7009 80.7231 78.349 77.1332 77.6995ZM92.382 73.9273C89.9219 73.0621 87.4781 72.1511 85.052 71.1949C81.0046 69.5888 76.9733 68.4466 72.7467 67.4515C71.5405 67.1737 70.3983 66.6688 69.3809 65.9638C77.3476 67.2148 85.0136 70.2959 92.382 73.9273ZM73.2555 71.2141C70.833 70.9827 68.4006 70.8706 65.967 70.8782C65.8839 69.9279 65.7879 68.9841 65.6951 68.0338C68.0883 69.7008 70.5807 70.539 73.2555 71.2141Z" fill="#AA4334"/>
</svg>
